<svg version="1.1" id="hiof-branding-logo" xmlns="http://www.w3.org/2000/svg" xmlns:xlink="http://www.w3.org/1999/xlink" x="0px"
	 y="0px" viewBox="16 283.3 150 30" enable-background="new 16 283.3 150 30" xml:space="preserve">
<g id="circle">
	<polygon points="23.8,302.9 26.7,302.9 30.8,291.8 27.8,291.8 	"/>
	<path d="M35.3,287.7l-1,2.6c2.9,1.7,4.9,4.8,4.9,8.5c0,5.4-4.4,9.8-9.8,9.8s-9.8-4.4-9.8-9.8c0-5.4,4.4-9.8,9.8-9.8
		c0.8,0,1.5,0.1,2.3,0.3l1-2.6c-1-0.3-2.1-0.4-3.2-0.4c-6.9,0-12.5,5.6-12.5,12.5s5.6,12.5,12.5,12.5c6.9,0,12.5-5.6,12.5-12.5
		C42,293.9,39.3,289.8,35.3,287.7z"/>
	<polygon points="29.7,302.9 32.7,302.9 35.2,295.9 32.3,295.9 	"/>
</g>
<g id="text">
	<path d="M53,302.9V299h-3.3v3.9h-2.1v-9.4h2.1v3.6H53v-3.6H55v9.4L53,302.9L53,302.9z"/>
	<path d="M59.7,303.1c-0.2,0-0.4,0-0.6-0.1l-0.5,1.4l-1.1-0.4l0.5-1.4c-0.9-0.5-1.4-1.6-1.4-3.1c0-2.3,1.5-3.8,3.5-3.8
		c0.1,0,0.3,0,0.5,0l0.5-1.3l1.1,0.3l-0.5,1.3c0.9,0.5,1.5,1.4,1.5,3.1C63.1,301.6,61.6,303.1,59.7,303.1z M59.5,297.6
		c-0.6,0.1-1.1,0.6-1.1,1.8c0,0.5,0.1,1,0.3,1.3l1.1-3.1C59.7,297.5,59.6,297.5,59.5,297.6z M60.9,298l-1.2,3.3c0.1,0,0.2,0,0.4,0
		c0.6-0.1,1.2-0.7,1.2-1.9C61.2,298.8,61.1,298.4,60.9,298z"/>
	<path d="M67.1,306.4c-1.8,0-2.9-0.7-2.9-2.1c0-0.7,0.4-1.3,0.9-1.6c-0.4-0.2-0.6-0.6-0.6-1.1c0-0.6,0.3-1.1,0.8-1.3
		c-0.6-0.3-1-1-1-1.9c0-1.4,1-2.7,3-2.7c0.4,0,0.8,0.1,1.1,0.2h2.2v1.7H70c0.1,0.1,0.2,0.4,0.2,0.6c0,1.5-0.9,2.5-2.8,2.5
		c-0.1,0-0.2,0-0.4,0c-0.2,0.1-0.2,0.2-0.2,0.3c0,0.3,0.2,0.3,0.9,0.4l0.9,0c1.4,0.1,2.3,0.7,2.3,2.1
		C70.8,305,69.3,306.4,67.1,306.4z M68,303.1l-1,0c-0.1,0-0.2,0-0.3,0c-0.3,0.3-0.5,0.6-0.5,0.9c0,0.5,0.4,0.9,1.2,0.9
		c0.9,0,1.4-0.4,1.4-1C68.8,303.4,68.6,303.1,68,303.1z M67.3,297.3c-0.6,0-1,0.4-1,1c0,0.6,0.3,1,1,1c0.6,0,1-0.4,1-1
		C68.3,297.7,67.9,297.3,67.3,297.3z"/>
	<path d="M73.4,303.1c-0.5,0-1-0.1-1.5-0.2l0.1-1.7c0.4,0.2,0.9,0.3,1.4,0.3c0.5,0,0.8-0.2,0.8-0.5c0-1-2.4-0.4-2.4-2.7
		c0-1.3,0.9-2.3,2.9-2.3c0.4,0,0.8,0.1,1.1,0.1l-0.1,1.7c-0.3-0.1-0.8-0.2-1.1-0.2c-0.5,0-0.8,0.2-0.8,0.5c0,0.9,2.5,0.5,2.5,2.7
		C76.4,302.1,75.2,303.1,73.4,303.1z"/>
	<path d="M81.7,302.9l-1.8-3.3v3.3h-2v-10.2h2v6l1.7-2.8h2.5l-2.2,3.2l2.3,3.8L81.7,302.9L81.7,302.9z"/>
	<path d="M87.9,303.1c-1.9,0-3.2-1-3.2-3.5c0-2.3,1.5-3.8,3.5-3.8c2,0,3.1,1.2,3.1,3.5C91.4,301.5,89.9,303.1,87.9,303.1z
		 M88.1,297.6c-0.6,0-1.3,0.5-1.3,1.7c0,1.3,0.4,1.9,1.2,1.9c0.7,0,1.2-0.6,1.2-1.8C89.3,298.2,88.9,297.6,88.1,297.6z"/>
	<path d="M92.8,302.9v-10.2h2v10.2L92.8,302.9L92.8,302.9z"/>
	<path d="M102.3,300h-3.9c0,0.9,0.5,1.4,1.6,1.4c0.6,0,1.3-0.1,1.9-0.4l0.2,1.6c-0.8,0.3-1.6,0.5-2.5,0.5c-2.1,0-3.3-1.1-3.3-3.5
		c0-2.1,1.1-3.7,3.2-3.7c2,0,2.9,1.4,2.9,3.2C102.4,299.3,102.3,299.6,102.3,300z M99.5,297.4c-0.6,0-1,0.5-1.1,1.2h2
		C100.4,297.8,100.1,297.4,99.5,297.4z"/>
	<path d="M107.9,302.9v-4.4c0-0.6-0.1-0.9-0.6-0.9c-0.7,0-1.3,0.9-1.3,1.9v3.4h-2V296h1.9c0,0.3,0,0.8-0.1,1.1l0,0
		c0.4-0.7,1.1-1.3,2.2-1.3c1.5,0,1.9,1,1.9,2.2v4.9H107.9z"/>
	<path d="M116,295.2c-0.7,0-1.2-0.6-1.2-1.3c0-0.7,0.6-1.3,1.2-1.3c0.7,0,1.2,0.6,1.2,1.3C117.2,294.6,116.7,295.2,116,295.2z
		 M115,302.9V296h2v6.9H115z"/>
	<path d="M125.8,303.1c-0.2,0-0.4,0-0.6-0.1l-0.4,1.4l-1.5-0.5l0.4-1.3c-1.3-0.7-2-2.3-2-4.3c0-3.1,2-5,4.4-5c0.2,0,0.3,0,0.5,0
		l0.4-1.3l1.5,0.5l-0.4,1.2c1.2,0.6,2.1,2,2.1,4.3C130.2,301.2,128.3,303.1,125.8,303.1z M125.4,295.3c-0.9,0.2-1.6,1.2-1.6,2.8
		c0,1,0.2,1.8,0.6,2.2l1.7-5.1C125.8,295.2,125.6,295.3,125.4,295.3z M127.4,295.9l-1.7,5.2c0.2,0,0.3,0,0.5,0c1-0.1,1.9-1,1.9-3
		C128.1,297.2,127.9,296.3,127.4,295.9z"/>
	<path d="M132.9,303.1c-0.5,0-1-0.1-1.5-0.2l0.1-1.7c0.4,0.2,0.9,0.3,1.4,0.3c0.5,0,0.8-0.2,0.8-0.5c0-1-2.4-0.4-2.4-2.7
		c0-1.3,0.9-2.3,2.9-2.3c0.4,0,0.8,0.1,1.1,0.1l-0.1,1.7c-0.3-0.1-0.8-0.2-1.1-0.2c-0.5,0-0.8,0.2-0.8,0.5c0,0.9,2.5,0.5,2.5,2.7
		C135.9,302.1,134.7,303.1,132.9,303.1z"/>
	<path d="M139.8,303.1c-1.5,0-2-0.5-2-2.2v-3.2h-1V296h1v-2.1l2-0.6v2.6h1.4v1.6h-1.4v2.7c0,0.7,0.2,0.9,0.7,0.9
		c0.2,0,0.5,0,0.7-0.1l0.1,1.7C140.8,303,140.2,303.1,139.8,303.1z"/>
	<path d="M146.7,294.4c-0.2-0.1-0.5-0.1-0.7-0.1c-0.6,0-0.9,0.3-0.9,1v0.6h1.3v1.6h-1.3v5.3h-2v-5.3h-1V296h1v-0.6
		c0-1.8,0.8-2.8,2.7-2.8c0.3,0,0.7,0,1.1,0.1L146.7,294.4z"/>
	<path d="M150.3,303.1c-1.9,0-3.2-1-3.2-3.5c0-2.3,1.5-3.8,3.5-3.8c2,0,3.1,1.2,3.1,3.5C153.8,301.5,152.3,303.1,150.3,303.1z
		 M150.5,297.6c-0.6,0-1.3,0.5-1.3,1.7c0,1.3,0.4,1.9,1.2,1.9c0.7,0,1.2-0.6,1.2-1.8C151.7,298.2,151.4,297.6,150.5,297.6z"/>
	<path d="M155.3,302.9v-10.2h2v10.2L155.3,302.9L155.3,302.9z"/>
	<path d="M163.1,302.9c0-0.3,0-0.6,0.1-1h0c-0.4,0.7-1,1.2-2,1.2c-1.6,0-2.4-1.3-2.4-3.3c0-2.3,1.3-4,3.5-4c0.2,0,0.4,0,0.7,0v-3.2
		h2v10.2H163.1z M163,297.6c-0.2-0.1-0.4-0.1-0.7-0.1c-0.8,0-1.4,0.5-1.4,2.1c0,1.2,0.3,1.7,0.9,1.7c0.7,0,1.1-0.8,1.1-2V297.6z"/>
</g>
</svg>
